<svg xmlns="http://www.w3.org/2000/svg" viewBox="0 0 32 32" width="32" height="32">
  <defs>
    <linearGradient id="g" x1="0%" y1="0%" x2="100%" y2="100%">
      <stop offset="0%" stop-color="#ff4ecd"/>
      <stop offset="100%" stop-color="#4e8aff"/>
    </linearGradient>
  </defs>
  <rect width="32" height="32" rx="7" fill="url(#g)"/>
  <g fill="none" stroke="#fff" stroke-width="2" stroke-linecap="round" stroke-linejoin="round">
    <path d="M8 9h13a1 1 0 0 1 1 1v12a1 1 0 0 1-1 1H10a2 2 0 0 1-2-2V9z"/>
    <path d="M22 12h2a1 1 0 0 1 1 1v9a1 1 0 0 1-1 1h-2"/>
    <path d="M11 13h7"/>
    <path d="M11 16h7"/>
    <path d="M11 19h5"/>
  </g>
</svg>
